<svg xmlns="http://www.w3.org/2000/svg" xmlns:xlink="http://www.w3.org/1999/xlink" version="1.1" x="0px" y="0px" viewBox="0 0 52 52" xml:space="preserve">
  <desc>swirl flower by ProSymbols from the Noun Project</desc>
  <g>
    <path d="M27.1,19.5C24.7,14,27.4,7.5,33,5.4c-5-6.6-15.8-3-15.8,5.4C17.2,16,21.7,20.2,27.1,19.5z"/>
    <path d="M34.8,41.2c0-5.4-4.8-9.4-9.9-8.7c2.5,5.6-0.4,12-5.8,14.1C24.2,53.2,34.8,49.5,34.8,41.2z"/>
    <path d="M41.2,17.2c-5.2,0-9.4,4.5-8.7,9.9c5.5-2.5,12,0.2,14.1,5.8C53.2,27.9,49.6,17.2,41.2,17.2z"/>
    <path d="M10.8,34.8c5.2,0,9.4-4.5,8.7-9.9C14.1,27.3,7.6,24.7,5.4,19C-1.2,24.1,2.4,34.8,10.8,34.8z"/>
    <path d="M45.5,16.4c1.1-8.3-9-13.3-15-7.3c-3.7,3.7-3.5,9.8,0.8,13.2C33.6,16.5,40.1,13.9,45.5,16.4z"/>
    <path d="M6.5,35.6C6.2,38.2,7,41,9,43c3.4,3.4,9,3.4,12.4,0c3.6-3.6,3.5-9.7-0.8-13.2C18.4,35.5,11.9,38,6.5,35.6z"/>
    <path d="M43,30.5c-3.4-3.4-9-3.4-12.4,0c-0.3,0.3-0.5,0.5-0.7,0.8c5.7,2.2,8.3,8.7,5.8,14.1C43.9,46.5,48.9,36.5,43,30.5z"/>
    <path d="M22.2,20.6c-5.7-2.2-8.3-8.7-5.9-14.1c-8.3-1-13.3,9-7.3,15C12.6,25.1,18.8,25,22.2,20.6z"/>
    <circle cx="26" cy="26" r="4.7"/>
  </g>
</svg>